<svg width="83" height="83" viewBox="0 0 83 83" fill="none" xmlns="http://www.w3.org/2000/svg">
<circle cx="41.5" cy="41.5" r="41.5" fill="#F7F7F8"/>
<path d="M39.9731 25C37.3869 25 35.2906 27.162 35.2906 29.8292C35.2906 31.1481 35.8027 32.3443 36.6337 33.2158H27V41.2644C27.8587 40.2414 29.1282 39.5926 30.5432 39.5926C33.1294 39.5926 35.2257 41.7545 35.2257 44.4217C35.2257 47.089 33.1294 49.2509 30.5432 49.2509C29.1282 49.2509 27.8587 48.6021 27 47.5791V59H37.12C36.0499 58.1149 35.3646 56.756 35.3646 55.2312C35.3646 52.5639 37.4609 50.4021 40.0472 50.4021C42.6334 50.4021 44.7296 52.564 44.7296 55.2312C44.7296 56.7559 44.0444 58.1148 42.9743 59H52.0012V48.9118C52.849 49.7886 54.0219 50.3304 55.3174 50.3304C57.9037 50.3304 59.9999 48.1685 59.9999 45.5013C59.9999 42.834 57.9036 40.6721 55.3174 40.6721C54.0219 40.6721 52.849 41.214 52.0012 42.0908V33.2158H43.3124C44.1437 32.3442 44.6556 31.1483 44.6556 29.8292C44.6556 27.1619 42.5593 25 39.9731 25Z" fill="#E40066"/>
</svg>
