<svg width="18" height="16" viewBox="0 0 18 16" fill="none" xmlns="http://www.w3.org/2000/svg">
<path d="M3.21429 1.34281C3.21429 1.82495 3 2.19325 2.57143 2.44772V15.1642C2.57143 15.2513 2.53795 15.325 2.47098 15.3852C2.41071 15.4522 2.33705 15.4857 2.25 15.4857H1.60714C1.52009 15.4857 1.44308 15.4522 1.37612 15.3852C1.31585 15.325 1.28571 15.2513 1.28571 15.1642V2.44772C0.857143 2.19325 0.642857 1.82495 0.642857 1.34281C0.642857 0.987897 0.766741 0.686558 1.01451 0.43879C1.26897 0.184325 1.57366 0.0570933 1.92857 0.0570933C2.28348 0.0570933 2.58482 0.184325 2.83259 0.43879C3.08705 0.686558 3.21429 0.987897 3.21429 1.34281ZM18 1.98566V9.64973C18 9.81714 17.9565 9.94772 17.8694 10.0415C17.7891 10.1285 17.6585 10.2189 17.4777 10.3127C16.0379 11.0895 14.8025 11.4779 13.7712 11.4779C13.3627 11.4779 12.9475 11.4042 12.5257 11.2569C12.1105 11.1095 11.7489 10.9488 11.4408 10.7747C11.1328 10.6006 10.7444 10.4399 10.2757 10.2926C9.81362 10.1453 9.33817 10.0716 8.84933 10.0716C7.56362 10.0716 6.01004 10.5604 4.18862 11.5381C4.07478 11.5984 3.96429 11.6285 3.85714 11.6285C3.68304 11.6285 3.53237 11.5649 3.40513 11.4377C3.2779 11.3104 3.21429 11.1598 3.21429 10.9857V3.53254C3.21429 3.31825 3.31808 3.1341 3.52567 2.98008C3.66629 2.88633 3.9308 2.74236 4.3192 2.54816C5.89955 1.74459 7.30915 1.34281 8.54799 1.34281C9.26451 1.34281 9.93415 1.43991 10.5569 1.6341C11.1797 1.8283 11.9129 2.12294 12.7567 2.51803C13.0112 2.64526 13.3058 2.70888 13.6406 2.70888C14.0022 2.70888 14.394 2.63857 14.8158 2.49794C15.2444 2.35732 15.6127 2.19995 15.9208 2.02584C16.2355 1.85174 16.5301 1.69437 16.8047 1.55375C17.0859 1.41312 17.2701 1.34281 17.3571 1.34281C17.5313 1.34281 17.6819 1.40642 17.8092 1.53366C17.9364 1.66089 18 1.81156 18 1.98566Z" fill="white"/>
</svg>
