<svg width="83" height="83" viewBox="0 0 83 83" fill="none" xmlns="http://www.w3.org/2000/svg">
<circle cx="41.5" cy="41.5" r="41.5" fill="#F7F7F8"/>
<path d="M59.8519 29.2974C57.4882 28.3123 55.1226 27.9375 52.7582 27.9375C45.2525 27.9369 37.7475 31.712 30.2418 31.712C28.3594 31.712 26.4783 31.4746 24.5959 30.8813C24.3845 30.8147 24.1724 30.7832 23.9652 30.7832C22.9165 30.7832 22 31.5897 22 32.7092V51.9183C22 52.683 22.4406 53.4078 23.1481 53.702C25.5118 54.6877 27.8774 55.0625 30.2418 55.0625C37.7475 55.0625 45.2531 51.2874 52.7588 51.2874C54.6412 51.2874 56.5223 51.5247 58.4047 52.1181C58.6161 52.1847 58.8282 52.2162 59.0354 52.2162C60.0841 52.2162 61.0006 51.4097 61.0006 50.2902V31.0817C61 30.3164 60.5594 29.5922 59.8519 29.2974V29.2974ZM41.5 47.3125C38.8072 47.3125 36.625 44.7096 36.625 41.5C36.625 38.2898 38.8078 35.6875 41.5 35.6875C44.1922 35.6875 46.375 38.2898 46.375 41.5C46.375 44.7108 44.1916 47.3125 41.5 47.3125Z" fill="#03CEA4"/>
</svg>
