<svg width="10" height="6" viewBox="0 0 10 6" fill="none" xmlns="http://www.w3.org/2000/svg">
<path d="M9.3683 1.05169C9.42783 1.11121 9.45759 1.17966 9.45759 1.25704C9.45759 1.33443 9.42783 1.40288 9.3683 1.4624L5.20759 5.62312C5.14807 5.68264 5.07961 5.7124 5.00223 5.7124C4.92485 5.7124 4.8564 5.68264 4.79688 5.62312L0.636161 1.4624C0.576637 1.40288 0.546875 1.33443 0.546875 1.25704C0.546875 1.17966 0.576637 1.11121 0.636161 1.05169L1.08259 0.605259C1.14211 0.545735 1.21057 0.515974 1.28795 0.515974C1.36533 0.515974 1.43378 0.545735 1.4933 0.605259L5.00223 4.11419L8.51116 0.605259C8.57068 0.545735 8.63914 0.515974 8.71652 0.515974C8.7939 0.515974 8.86235 0.545735 8.92188 0.605259L9.3683 1.05169Z" fill="white"/>
</svg>
