<svg width="83" height="83" viewBox="0 0 83 83" fill="none" xmlns="http://www.w3.org/2000/svg">
<circle cx="41.5" cy="41.5" r="41.5" fill="#F7F7F8"/>
<path fill-rule="evenodd" clip-rule="evenodd" d="M36.5 52.5L30.5 46.5C30.5 46.0005 30.9995 45 32 43.5L26 42L29 37.5L35 39C41 30 50 27 56 27C56 33 53 42 44 48L45.5 54L41 57L39.5 51C38 52.0005 36.9995 52.5 36.5 52.5ZM46.25 39C46.8467 39 47.419 38.7629 47.841 38.341C48.2629 37.919 48.5 37.3467 48.5 36.75C48.5 36.1533 48.2629 35.581 47.841 35.159C47.419 34.7371 46.8467 34.5 46.25 34.5C45.6533 34.5 45.081 34.7371 44.659 35.159C44.2371 35.581 44 36.1533 44 36.75C44 37.3467 44.2371 37.919 44.659 38.341C45.081 38.7629 45.6533 39 46.25 39V39ZM29 48L30.875 49.875C29.8745 50.8755 29.2505 52.2495 29 54C30.7505 53.7495 32.1245 53.1255 33.125 52.125L35 54C33.0005 55.9995 30.0005 57 26 57C26 52.9995 27.0005 49.9995 29 48Z" fill="#2773FF"/>
</svg>
