<svg width="28" height="24" viewBox="0 0 28 24" fill="none" xmlns="http://www.w3.org/2000/svg">
<path fill-rule="evenodd" clip-rule="evenodd" d="M16.5802 16.0034L16.6356 20.894C16.6475 21.9445 17.4565 22.8137 18.5035 22.9007L24.5396 23.4023C26.2816 23.547 27.3846 21.5744 26.3492 20.1661L23.2887 16.0034L16.5802 16.0034Z" fill="#1A358C"/>
<path fill-rule="evenodd" clip-rule="evenodd" d="M16.5802 16.0034L16.6356 20.894C16.6475 21.9445 17.4565 22.8137 18.5035 22.9007L24.5396 23.4023C26.2816 23.547 27.3846 21.5744 26.3492 20.1661L23.2887 16.0034L16.5802 16.0034Z" fill="url(#paint0_linear)"/>
<path fill-rule="evenodd" clip-rule="evenodd" d="M11.0012 16.0034L10.9458 20.894C10.934 21.9445 10.1249 22.8137 9.07793 22.9007L3.04185 23.4023C1.29986 23.547 0.196806 21.5744 1.23224 20.1661L4.29276 16.0034L11.0012 16.0034Z" fill="#1A358C"/>
<path fill-rule="evenodd" clip-rule="evenodd" d="M11.0012 16.0034L10.9458 20.894C10.934 21.9445 10.1249 22.8137 9.07793 22.9007L3.04185 23.4023C1.29986 23.547 0.196806 21.5744 1.23224 20.1661L4.29276 16.0034L11.0012 16.0034Z" fill="url(#paint1_linear)"/>
<path fill-rule="evenodd" clip-rule="evenodd" d="M10.2096 1.37209C12.039 -0.457366 15.005 -0.457366 16.8344 1.37209L25.7837 10.3213C27.7662 12.3038 27.5749 15.5722 25.3746 17.31C23.248 18.9894 21.1647 20.823 18.9951 22.4945C17.9632 23.2894 16.5237 22.5336 16.5237 21.2311L16.5237 16.3822C16.5237 15.4823 17.2532 14.7528 18.1531 14.7528L20.4384 14.7528C21.9009 14.7528 22.6228 12.9753 21.5746 11.9555L15.2342 5.78772C14.6018 5.17243 13.5944 5.17243 12.9619 5.78772L6.62162 11.9555C5.57333 12.9753 6.2953 14.7528 7.75777 14.7528L9.46707 14.7528C10.3669 14.7528 11.0964 15.4823 11.0964 16.3822L11.0964 20.8824C11.0964 22.2218 9.57018 22.9891 8.49516 22.1902L1.89042 17.2816C-0.404238 15.5763 -0.649331 12.231 1.37226 10.2094L10.2096 1.37209Z" fill="#5AA8FA"/>
<path fill-rule="evenodd" clip-rule="evenodd" d="M10.2096 1.37209C12.039 -0.457366 15.005 -0.457366 16.8344 1.37209L25.7837 10.3213C27.7662 12.3038 27.5749 15.5722 25.3746 17.31C23.248 18.9894 21.1647 20.823 18.9951 22.4945C17.9632 23.2894 16.5237 22.5336 16.5237 21.2311L16.5237 16.3822C16.5237 15.4823 17.2532 14.7528 18.1531 14.7528L20.4384 14.7528C21.9009 14.7528 22.6228 12.9753 21.5746 11.9555L15.2342 5.78772C14.6018 5.17243 13.5944 5.17243 12.9619 5.78772L6.62162 11.9555C5.57333 12.9753 6.2953 14.7528 7.75777 14.7528L9.46707 14.7528C10.3669 14.7528 11.0964 15.4823 11.0964 16.3822L11.0964 20.8824C11.0964 22.2218 9.57018 22.9891 8.49516 22.1902L1.89042 17.2816C-0.404238 15.5763 -0.649331 12.231 1.37226 10.2094L10.2096 1.37209Z" fill="url(#paint2_linear)"/>
<defs>
<linearGradient id="paint0_linear" x1="15.2919" y1="13.5791" x2="23.183" y2="21.27" gradientUnits="userSpaceOnUse">
<stop offset="0.659748"/>
<stop offset="1" stop-opacity="0"/>
</linearGradient>
<linearGradient id="paint1_linear" x1="12.2895" y1="13.5791" x2="4.39843" y2="21.27" gradientUnits="userSpaceOnUse">
<stop offset="0.659748"/>
<stop offset="1" stop-opacity="0"/>
</linearGradient>
<linearGradient id="paint2_linear" x1="16.4753" y1="33.0099" x2="16.4753" y2="5.51434" gradientUnits="userSpaceOnUse">
<stop stop-color="#6444FD"/>
<stop offset="1" stop-opacity="0"/>
</linearGradient>
</defs>
</svg>
