<svg width="103" height="17" viewBox="0 0 103 17" fill="none" xmlns="http://www.w3.org/2000/svg">
<path d="M11.8436 16.7792L10.7283 13.026H5.15177L4.03646 16.7792H0.540405L5.94536 0.949352H9.91328L15.3397 16.7792H11.8436ZM8.84087 6.55714C8.76937 6.30693 8.67643 5.99048 8.56204 5.60779C8.44765 5.22511 8.33326 4.83507 8.21887 4.43766C8.10448 4.04026 8.01153 3.69437 7.94004 3.4C7.86855 3.69437 7.76845 4.06234 7.63977 4.5039C7.52537 4.93074 7.41098 5.34286 7.29659 5.74026C7.1965 6.12294 7.11786 6.39524 7.06066 6.55714L5.9668 10.2221H9.95617L8.84087 6.55714Z" fill="white"/>
<path d="M27.7674 4.72468V16.7792H25.3223L24.8933 15.2338H24.7218C24.35 15.8519 23.8352 16.3009 23.1775 16.5805C22.534 16.8602 21.8477 17 21.1185 17C19.8602 17 18.8521 16.6541 18.0943 15.9623C17.3364 15.2558 16.9575 14.1299 16.9575 12.5844V4.72468H20.1533V11.7675C20.1533 12.6212 20.3034 13.2688 20.6037 13.7104C20.904 14.1519 21.383 14.3727 22.0407 14.3727C23.0131 14.3727 23.6779 14.0342 24.0354 13.3571C24.3929 12.6654 24.5716 11.6792 24.5716 10.3987V4.72468H27.7674Z" fill="white"/>
<path d="M36.0513 14.3727C36.4087 14.3727 36.7519 14.3359 37.0808 14.2623C37.4097 14.1887 37.7385 14.1004 38.0674 13.9974V16.4481C37.7242 16.5952 37.2953 16.7203 36.7805 16.8234C36.2801 16.9411 35.7296 17 35.129 17C34.4284 17 33.7992 16.8823 33.2416 16.6468C32.6982 16.4113 32.2621 16.0065 31.9332 15.4325C31.6186 14.8437 31.4614 14.0342 31.4614 13.0039V7.1974H29.9385V5.80649L31.6973 4.7026L32.6196 2.16364H34.6571V4.72468H37.9387V7.1974H34.6571V13.0039C34.6571 13.4602 34.7858 13.8061 35.0432 14.0416C35.3006 14.2623 35.6366 14.3727 36.0513 14.3727Z" fill="white"/>
<path d="M43.6138 3.42208C43.6138 4.01082 43.5923 4.57749 43.5494 5.12208C43.5208 5.66667 43.4922 6.04935 43.4636 6.27013H43.6352C44.007 5.65195 44.486 5.20303 45.0723 4.92338C45.6585 4.64372 46.3091 4.5039 47.024 4.5039C48.2966 4.5039 49.3119 4.85714 50.0697 5.56364C50.8418 6.25541 51.2279 7.37403 51.2279 8.91948V16.7792H48.0321V9.73636C48.0321 7.99957 47.403 7.13117 46.1447 7.13117C45.1867 7.13117 44.5218 7.47706 44.15 8.16883C43.7925 8.84589 43.6138 9.82468 43.6138 11.1052V16.7792H40.418V0H43.6138V3.42208Z" fill="white"/>
<path d="M62.6647 16.7792H53.4205V14.8364L58.8469 7.24156H53.7422V4.72468H62.4716V6.86623L57.1954 14.2623H62.6647V16.7792Z" fill="white"/>
<path d="M71.636 4.5039C72.8943 4.5039 73.9024 4.85714 74.6602 5.56364C75.4181 6.25541 75.797 7.37403 75.797 8.91948V16.7792H72.6012V9.73636C72.6012 8.86797 72.4511 8.22035 72.1508 7.79351C71.8505 7.35195 71.3715 7.13117 70.7138 7.13117C69.7415 7.13117 69.0766 7.47706 68.7191 8.16883C68.3616 8.84589 68.1829 9.82468 68.1829 11.1052V16.7792H64.9871V4.72468H67.4322L67.8612 6.27013H68.0327C68.4045 5.65195 68.9121 5.20303 69.5556 4.92338C70.2133 4.64372 70.9068 4.5039 71.636 4.5039Z" fill="white"/>
<path d="M81.2308 14.4736C81.2308 15.3786 80.7945 15.831 79.9218 15.831C79.534 15.831 79.2172 15.7113 78.9716 15.4717C78.7324 15.2255 78.6128 14.9028 78.6128 14.5036C78.6128 13.592 79.0685 13.1362 79.98 13.1362C80.3484 13.1362 80.649 13.2659 80.8818 13.5254C81.1145 13.7783 81.2308 14.0943 81.2308 14.4736Z" fill="white"/>
<path d="M86.9757 0C87.4476 0 87.8551 0.117749 88.1983 0.353247C88.5414 0.574026 88.713 0.993507 88.713 1.61169C88.713 2.21515 88.5414 2.63463 88.1983 2.87013C87.8551 3.10563 87.4476 3.22338 86.9757 3.22338C86.4895 3.22338 86.0749 3.10563 85.7317 2.87013C85.4028 2.63463 85.2384 2.21515 85.2384 1.61169C85.2384 0.993507 85.4028 0.574026 85.7317 0.353247C86.0749 0.117749 86.4895 0 86.9757 0ZM88.5629 4.72468V16.7792H85.3671V4.72468H88.5629Z" fill="white"/>
<path d="M102.54 10.7299C102.54 12.7316 102.026 14.2771 100.996 15.3662C99.9809 16.4554 98.5939 17 96.8352 17C95.7485 17 94.7762 16.7571 93.9182 16.2714C93.0746 15.7857 92.4097 15.0792 91.9235 14.1519C91.4374 13.21 91.1943 12.0693 91.1943 10.7299C91.1943 8.72814 91.7019 7.19004 92.7171 6.11558C93.7323 5.04113 95.1265 4.5039 96.8995 4.5039C98.0005 4.5039 98.9729 4.74675 99.8165 5.23247C100.66 5.71818 101.325 6.42467 101.811 7.35195C102.297 8.2645 102.54 9.39048 102.54 10.7299ZM94.4544 10.7299C94.4544 11.9221 94.6403 12.8273 95.0121 13.4455C95.3982 14.0489 96.0201 14.3506 96.8781 14.3506C97.7217 14.3506 98.3294 14.0489 98.7012 13.4455C99.0872 12.8273 99.2803 11.9221 99.2803 10.7299C99.2803 9.53766 99.0872 8.64719 98.7012 8.05844C98.3294 7.45498 97.7146 7.15325 96.8566 7.15325C96.013 7.15325 95.3982 7.45498 95.0121 8.05844C94.6403 8.64719 94.4544 9.53766 94.4544 10.7299Z" fill="white"/>
</svg>
