<svg width="103" height="17" viewBox="0 0 103 17" fill="none" xmlns="http://www.w3.org/2000/svg">
<path d="M11.8437 16.7792L10.7284 13.026H5.15189L4.03659 16.7792H0.540527L5.94548 0.949352H9.9134L15.3398 16.7792H11.8437ZM8.84099 6.55714C8.76949 6.30693 8.67655 5.99048 8.56216 5.60779C8.44777 5.22511 8.33338 4.83507 8.21899 4.43766C8.1046 4.04026 8.01166 3.69437 7.94016 3.4C7.86867 3.69437 7.76858 4.06234 7.63989 4.5039C7.5255 4.93074 7.41111 5.34286 7.29672 5.74026C7.19662 6.12294 7.11798 6.39524 7.06079 6.55714L5.96693 10.2221H9.95629L8.84099 6.55714Z" fill="#14296B"/>
<path d="M27.7675 4.72468V16.7792H25.3224L24.8935 15.2338H24.7219C24.3501 15.8519 23.8354 16.3009 23.1776 16.5805C22.5342 16.8602 21.8478 17 21.1186 17C19.8603 17 18.8522 16.6541 18.0944 15.9623C17.3365 15.2558 16.9576 14.1299 16.9576 12.5844V4.72468H20.1534V11.7675C20.1534 12.6212 20.3036 13.2688 20.6038 13.7104C20.9041 14.1519 21.3831 14.3727 22.0409 14.3727C23.0132 14.3727 23.6781 14.0342 24.0355 13.3571C24.393 12.6654 24.5717 11.6792 24.5717 10.3987V4.72468H27.7675Z" fill="#14296B"/>
<path d="M36.0514 14.3727C36.4089 14.3727 36.752 14.3359 37.0809 14.2623C37.4098 14.1887 37.7387 14.1004 38.0675 13.9974V16.4481C37.7244 16.5952 37.2954 16.7203 36.7806 16.8234C36.2802 16.9411 35.7297 17 35.1291 17C34.4285 17 33.7993 16.8823 33.2417 16.6468C32.6983 16.4113 32.2622 16.0065 31.9333 15.4325C31.6188 14.8437 31.4615 14.0342 31.4615 13.0039V7.1974H29.9387V5.80649L31.6974 4.7026L32.6197 2.16364H34.6573V4.72468H37.9388V7.1974H34.6573V13.0039C34.6573 13.4602 34.786 13.8061 35.0433 14.0416C35.3007 14.2623 35.6367 14.3727 36.0514 14.3727Z" fill="#14296B"/>
<path d="M43.6139 3.42208C43.6139 4.01082 43.5925 4.57749 43.5496 5.12208C43.521 5.66667 43.4924 6.04935 43.4638 6.27013H43.6354C44.0071 5.65195 44.4861 5.20303 45.0724 4.92338C45.6586 4.64372 46.3092 4.5039 47.0242 4.5039C48.2968 4.5039 49.312 4.85714 50.0698 5.56364C50.842 6.25541 51.228 7.37403 51.228 8.91948V16.7792H48.0322V9.73636C48.0322 7.99957 47.4031 7.13117 46.1448 7.13117C45.1868 7.13117 44.5219 7.47706 44.1501 8.16883C43.7926 8.84589 43.6139 9.82468 43.6139 11.1052V16.7792H40.4181V0H43.6139V3.42208Z" fill="#14296B"/>
<path d="M62.6648 16.7792H53.4206V14.8364L58.847 7.24156H53.7423V4.72468H62.4717V6.86623L57.1955 14.2623H62.6648V16.7792Z" fill="#14296B"/>
<path d="M71.6362 4.5039C72.8945 4.5039 73.9025 4.85714 74.6604 5.56364C75.4182 6.25541 75.7971 7.37403 75.7971 8.91948V16.7792H72.6013V9.73636C72.6013 8.86797 72.4512 8.22035 72.1509 7.79351C71.8506 7.35195 71.3716 7.13117 70.7139 7.13117C69.7416 7.13117 69.0767 7.47706 68.7192 8.16883C68.3617 8.84589 68.183 9.82468 68.183 11.1052V16.7792H64.9872V4.72468H67.4323L67.8613 6.27013H68.0329C68.4046 5.65195 68.9122 5.20303 69.5557 4.92338C70.2134 4.64372 70.9069 4.5039 71.6362 4.5039Z" fill="#14296B"/>
<path d="M81.2309 14.4736C81.2309 15.3786 80.7946 15.831 79.9219 15.831C79.5341 15.831 79.2173 15.7113 78.9717 15.4717C78.7325 15.2255 78.6129 14.9028 78.6129 14.5036C78.6129 13.592 79.0687 13.1362 79.9801 13.1362C80.3486 13.1362 80.6492 13.2659 80.8819 13.5254C81.1146 13.7783 81.2309 14.0943 81.2309 14.4736Z" fill="#14296B"/>
<path d="M86.9758 0C87.4477 0 87.8552 0.117749 88.1984 0.353247C88.5415 0.574026 88.7131 0.993507 88.7131 1.61169C88.7131 2.21515 88.5415 2.63463 88.1984 2.87013C87.8552 3.10563 87.4477 3.22338 86.9758 3.22338C86.4897 3.22338 86.075 3.10563 85.7318 2.87013C85.403 2.63463 85.2385 2.21515 85.2385 1.61169C85.2385 0.993507 85.403 0.574026 85.7318 0.353247C86.075 0.117749 86.4897 0 86.9758 0ZM88.563 4.72468V16.7792H85.3672V4.72468H88.563Z" fill="#14296B"/>
<path d="M102.541 10.7299C102.541 12.7316 102.026 14.2771 100.996 15.3662C99.981 16.4554 98.5941 17 96.8353 17C95.7486 17 94.7763 16.7571 93.9184 16.2714C93.0747 15.7857 92.4098 15.0792 91.9237 14.1519C91.4375 13.21 91.1944 12.0693 91.1944 10.7299C91.1944 8.72814 91.702 7.19004 92.7173 6.11558C93.7325 5.04113 95.1266 4.5039 96.8997 4.5039C98.0007 4.5039 98.973 4.74675 99.8166 5.23247C100.66 5.71818 101.325 6.42467 101.811 7.35195C102.297 8.2645 102.541 9.39048 102.541 10.7299ZM94.4546 10.7299C94.4546 11.9221 94.6404 12.8273 95.0122 13.4455C95.3983 14.0489 96.0203 14.3506 96.8782 14.3506C97.7218 14.3506 98.3295 14.0489 98.7013 13.4455C99.0874 12.8273 99.2804 11.9221 99.2804 10.7299C99.2804 9.53766 99.0874 8.64719 98.7013 8.05844C98.3295 7.45498 97.7147 7.15325 96.8568 7.15325C96.0131 7.15325 95.3983 7.45498 95.0122 8.05844C94.6404 8.64719 94.4546 9.53766 94.4546 10.7299Z" fill="#14296B"/>
</svg>
