<svg width="28" height="25" viewBox="0 0 28 25" fill="none" xmlns="http://www.w3.org/2000/svg">
<path fill-rule="evenodd" clip-rule="evenodd" d="M10.2095 1.37209C12.0389 -0.457366 15.0049 -0.457366 16.8343 1.37209L25.7835 10.3213C27.7661 12.3038 27.5748 15.5722 25.3745 17.31C23.2479 18.9894 21.1645 20.823 18.9949 22.4945C17.9631 23.2894 16.5236 22.5336 16.5236 21.2311L16.5236 16.3822C16.5236 15.4823 17.2531 14.7528 18.153 14.7528L20.4383 14.7528C21.9008 14.7528 22.6227 12.9753 21.5744 11.9555L15.2341 5.78772C14.6016 5.17243 13.5943 5.17243 12.9618 5.78772L6.6215 11.9555C5.57321 12.9753 6.29518 14.7528 7.75765 14.7528L9.46695 14.7528C10.3668 14.7528 11.0963 15.4823 11.0963 16.3822L11.0963 20.8824C11.0963 22.2218 9.57006 22.9891 8.49504 22.1902L1.89029 17.2816C-0.40436 15.5763 -0.649453 12.231 1.37214 10.2094L10.2095 1.37209Z" fill="white"/>
<path fill-rule="evenodd" clip-rule="evenodd" d="M3.00456 18.9844L1.40058 21.166C0.365145 22.5743 1.4682 24.5469 3.21019 24.4022L9.24627 23.9005C9.82304 23.8526 10.3276 23.5673 10.6664 23.1451C10.1236 23.5841 9.31159 23.6717 8.66353 23.19L3.00456 18.9844Z" fill="white"/>
<path fill-rule="evenodd" clip-rule="evenodd" d="M24.6619 18.9844L26.2659 21.166C27.3013 22.5743 26.1982 24.5469 24.4563 24.4022L18.4202 23.9005C17.8434 23.8526 17.3389 23.5673 17 23.1452C17.5428 23.5841 18.3548 23.6717 19.0029 23.19L24.6619 18.9844Z" fill="white"/>
</svg>
